<svg class="svg-icon" style="width: 1em; height: 1em;vertical-align: middle;fill: currentColor;overflow: hidden;" viewBox="0 0 1024 1024" version="1.1" xmlns="http://www.w3.org/2000/svg"><path d="M486.99392 831.36512c135.51616 0 245.76-106.25024 245.76-236.83072 0-43.29472-12.26752-85.68832-35.81952-123.12576L503.78752 185.0368a20.48 20.48 0 0 0-33.95584 0l-193.24928 287.08864a229.96992 229.96992 0 0 0-35.34848 122.38848c0 130.60096 110.24384 236.8512 245.76 236.8512z m-176.08704-336.896l175.9232-261.3248 175.80032 260.62848a188.96896 188.96896 0 0 1 29.184 100.7616c0 108.01152-91.87328 195.87072-204.8 195.87072s-204.8-87.87968-204.8-195.87072a188.60032 188.60032 0 0 1 28.69248-100.06528z" fill="#231F20" /></svg>